<svg width="2424" height="1747" viewBox="0 0 2424 1747" fill="none" xmlns="http://www.w3.org/2000/svg">
<path d="M1601.9 171.048L1299.2 140.599L1159.5 0L1000.99 158.51L724.269 166.57L858.599 300.901L718 441.5L1159.5 883L1601 441.5L1464.88 305.378L1601.9 171.048ZM1310.85 204.183L1463.09 219.407L1231.14 445.978L1310.85 204.183ZM1159.5 88.6582L1251.74 180.899L1160.4 460.306L1064.57 183.585L1159.5 88.6582ZM1010.84 220.302L1086.96 439.709L872.032 224.78L1010.84 220.302ZM903.376 344.782L1129.95 571.353L1129.05 762.998L806.658 441.5L903.376 344.782ZM1512.34 441.5L1193.53 760.311L1192.63 571.353L1420.1 349.26L1512.34 441.5Z" fill="#212947"/>
<path d="M297.418 1344.01C281.298 1406.7 225.775 1455.05 152.341 1455.05C62.7869 1455.05 0.994873 1386.1 0.994873 1304.6C0.994873 1221.32 65.4735 1155.05 149.654 1155.05C220.401 1155.05 280.403 1199.83 297.418 1268.78H228.461C216.819 1239.23 189.058 1217.74 152.341 1217.74C127.266 1216.84 108.459 1225.8 92.3397 1241.92C78.0111 1257.14 69.0557 1279.53 69.0557 1304.6C69.0557 1355.65 104.877 1391.47 152.341 1391.47C194.431 1391.47 217.715 1366.4 228.461 1343.11H297.418V1344.01Z" fill="#212947"/>
<path d="M363.688 1164.9H427.271V1201.62C439.808 1176.54 463.092 1156.84 505.182 1155.95V1224.01H502.496C455.032 1224.01 430.853 1246.4 430.853 1294.75V1447H363.688V1164.9Z" fill="#212947"/>
<path d="M837.434 1447H770.269V1406.7C752.358 1439.83 714.745 1455.95 675.342 1455.95C584.892 1455.95 532.056 1385.2 532.056 1305.5C532.056 1216.84 596.534 1155.95 675.342 1155.95C726.387 1155.95 757.731 1182.81 770.269 1206.1V1164.9H837.434V1447ZM598.325 1307.29C598.325 1342.22 623.4 1393.26 684.297 1393.26C721.91 1393.26 746.089 1373.56 759.522 1348.49C765.791 1335.95 769.373 1322.52 770.269 1309.08C771.164 1295.65 768.478 1282.22 762.209 1269.68C750.567 1242.81 724.596 1219.53 683.401 1219.53C629.669 1218.63 598.325 1262.52 598.325 1307.29Z" fill="#212947"/>
<path d="M932.333 1216.84H897.407V1164.9H932.333V1148.78C932.333 1064.6 995.916 1060.12 1044.28 1059.23V1111.17C1027.26 1111.17 999.498 1111.17 999.498 1150.57V1164H1044.28V1215.94H999.498V1446.1H932.333V1216.84Z" fill="#212947"/>
<path d="M1125.78 1216.84H1079.21V1164.9H1125.78V1066.39H1192.94V1164.9H1241.3V1216.84H1192.94V1447H1125.78V1216.84Z" fill="#212947"/>
<path d="M1582.51 1447H1515.35V1406.7C1497.44 1439.83 1459.83 1455.95 1420.42 1455.95C1329.97 1455.95 1277.14 1385.2 1277.14 1305.5C1277.14 1216.84 1341.61 1155.95 1420.42 1155.95C1471.47 1155.95 1502.81 1182.81 1515.35 1206.1V1164.9H1582.51V1447ZM1344.3 1307.29C1344.3 1342.22 1369.38 1393.26 1430.27 1393.26C1467.89 1393.26 1492.06 1373.56 1505.5 1348.49C1511.77 1335.95 1515.35 1322.52 1516.24 1309.08C1517.14 1295.65 1514.45 1282.22 1508.18 1269.68C1496.54 1242.81 1470.57 1219.53 1429.38 1219.53C1374.75 1218.63 1344.3 1262.52 1344.3 1307.29Z" fill="#212947"/>
<path d="M1649.66 1066.39H1716.82V1165.8V1199.83C1744.59 1165.8 1784.88 1155.95 1810.86 1155.95C1878.02 1155.95 1951.45 1205.2 1951.45 1304.61C1951.45 1400.43 1884.29 1455.95 1807.27 1455.95C1763.39 1455.95 1728.47 1434.46 1714.14 1406.7V1447H1649.66V1066.39ZM1884.29 1304.61C1884.29 1258.04 1848.47 1218.63 1799.21 1218.63C1746.38 1218.63 1714.14 1259.83 1714.14 1305.5C1714.14 1352.96 1747.27 1393.26 1798.32 1393.26C1852.95 1393.26 1884.29 1349.38 1884.29 1304.61Z" fill="#212947"/>
<path d="M2003.4 1066.39H2070.56V1447H2003.4V1066.39Z" fill="#212947"/>
<path d="M2195.05 1327.89C2197.73 1372.67 2238.03 1398.64 2276.54 1397.74C2309.68 1397.74 2331.17 1382.52 2344.6 1360.13H2413.56C2400.13 1391.47 2380.42 1414.76 2356.24 1430.88C2332.96 1447 2305.2 1455.95 2275.65 1455.95C2188.78 1455.95 2126.99 1385.2 2126.99 1307.29C2126.99 1226.69 2189.67 1156.84 2274.75 1156.84C2316.84 1156.84 2353.56 1172.96 2380.42 1199.83C2414.45 1235.65 2427.89 1279.53 2421.62 1328.79H2195.05V1327.89ZM2356.24 1276.84C2353.56 1249.98 2325.8 1212.37 2275.65 1213.26C2225.5 1213.26 2198.63 1249.08 2195.94 1276.84H2356.24Z" fill="#212947"/>
<path d="M240.096 1727.3L247.261 1719.24C255.32 1728.19 267.858 1737.15 285.769 1737.15C310.844 1737.15 318.008 1722.82 318.008 1712.97C318.008 1677.15 244.574 1695.95 244.574 1652.97C244.574 1633.27 262.485 1619.83 284.873 1619.83C302.784 1619.83 317.112 1626.1 326.068 1636.85L318.904 1644.91C309.948 1634.16 297.411 1629.68 283.977 1629.68C267.858 1629.68 255.32 1638.64 255.32 1652.07C255.32 1683.42 328.754 1666.4 328.754 1712.07C328.754 1728.19 318.008 1747 284.873 1747C265.171 1747 249.052 1738.94 240.096 1727.3Z" fill="#212947"/>
<path d="M496.234 1683.42C496.234 1647.59 519.518 1619.83 556.235 1619.83C592.057 1619.83 616.236 1647.59 616.236 1683.42C616.236 1719.24 592.057 1747 556.235 1747C520.414 1747 496.234 1719.24 496.234 1683.42ZM604.594 1683.42C604.594 1652.07 585.788 1629.68 556.235 1629.68C526.682 1629.68 507.876 1652.07 507.876 1683.42C507.876 1714.76 526.682 1737.15 556.235 1737.15C585.788 1737.15 604.594 1714.76 604.594 1683.42Z" fill="#212947"/>
<path d="M789.068 1745.21V1622.52H866.98V1632.37H799.814V1678.05H866.084V1687.9H799.814V1746.11H789.068V1745.21Z" fill="#212947"/>
<path d="M1066.68 1745.21V1632.37H1026.39V1622.52H1117.73V1632.37H1077.43V1745.21H1066.68Z" fill="#212947"/>
<path d="M1381.03 1745.21L1351.47 1639.54L1321.92 1745.21H1310.28L1275.35 1622.52H1286.99L1316.55 1730.88L1346.99 1622.52H1356.85L1386.4 1730.88L1415.95 1622.52H1427.59L1392.67 1745.21H1381.03Z" fill="#212947"/>
<path d="M1673.87 1745.21L1661.33 1714.76H1595.95L1583.42 1745.21H1570.88L1621.03 1622.52H1634.46L1684.61 1745.21H1673.87ZM1629.09 1633.27L1600.43 1704.91H1658.64L1629.09 1633.27Z" fill="#212947"/>
<path d="M1922.8 1745.21L1888.77 1694.16H1861.9V1745.21H1851.15V1622.52H1896.83C1918.32 1622.52 1934.44 1635.96 1934.44 1658.34C1934.44 1680.73 1919.22 1693.27 1900.41 1693.27L1936.23 1745.21H1922.8ZM1922.8 1658.34C1922.8 1643.12 1912.05 1632.37 1895.93 1632.37H1861.9V1685.21H1895.93C1912.05 1684.31 1922.8 1673.57 1922.8 1658.34Z" fill="#212947"/>
<path d="M2107.29 1745.21V1622.52H2185.2V1632.37H2118.04V1678.05H2184.31V1687.9H2118.04V1736.26H2185.2V1746.11H2107.29V1745.21Z" fill="#212947"/>
</svg>
